<svg xmlns="http://www.w3.org/2000/svg" xmlns:xlink="http://www.w3.org/1999/xlink" width="500" height="500" viewBox="0 0 500 500">
  <defs>
    <clipPath id="clip-Web_1920_1">
      <rect width="500" height="500"/>
    </clipPath>
  </defs>
  <g id="Web_1920_1" data-name="Web 1920 – 1" clip-path="url(#clip-Web_1920_1)">
    <path id="align-left-solid" d="M12.83,352H275.17A12.82,12.82,0,0,0,288,339.17V300.83A12.82,12.82,0,0,0,275.17,288H12.83A12.82,12.82,0,0,0,0,300.83v38.34A12.82,12.82,0,0,0,12.83,352Zm0-256H275.17A12.82,12.82,0,0,0,288,83.17V44.83A12.82,12.82,0,0,0,275.17,32H12.83A12.82,12.82,0,0,0,0,44.83V83.17A12.82,12.82,0,0,0,12.83,96ZM432,160H16A16,16,0,0,0,0,176v32a16,16,0,0,0,16,16H432a16,16,0,0,0,16-16V176A16,16,0,0,0,432,160Zm0,256H16A16,16,0,0,0,0,432v32a16,16,0,0,0,16,16H432a16,16,0,0,0,16-16V432A16,16,0,0,0,432,416Z" transform="translate(26 -6)" fill="#fff"/>
  </g>
</svg>
